<svg xmlns="http://www.w3.org/2000/svg" width="100%" height="100%" style="background-color: #000;" viewBox="0 0 76 76" xmlns:xlink="http://www.w3.org/1999/xlink">
                        <defs>
                            <linearGradient id="d" x1="50%" x2="50%" y1="0%" y2="100%">
                                <stop stop-color="#FFFFFF" offset="0%" />
                                <stop stop-color="#ECF2F7" offset="100%" />
                            </linearGradient>
                            <path id="c" d="M12.5,0l-6,1.1C6.2,1.2,6,1.4,6,1.7V4v0.6v9C5.4,13.2,4.7,13,4,13c-2.2,0-4,1.8-4,4c0,2.2,1.8,4,4,4s4-1.8,4-4
                          c0,0,0,0,0,0c0,0,0,0,0,0V4.7l4.5-0.8C12.8,3.8,13,3.6,13,3.3V0.4C13,0.1,12.8,0,12.5,0z" style="transform: translate(25px, 17px) scale(2);"
                            />
                            <filter id="b" width="200%" height="200%" x="-50%" y="-50%" filterUnits="objectBoundingBox">
                                <feOffset dy="2" in="SourceAlpha" result="shadowOffsetOuter1" />
                                <feGaussianBlur stdDeviation="1.5" in="shadowOffsetOuter1" result="shadowBlurOuter1" />
                                <feColorMatrix values="0 0 0 0 0 0 0 0 0 0 0 0 0 0 0 0 0 0 0.06 0" in="shadowBlurOuter1" />
                            </filter>
                            <filter id="e" width="200%" height="200%" x="-50%" y="-50%" filterUnits="objectBoundingBox">
                                <feMorphology radius="2" in="SourceAlpha" result="shadowSpreadInner1" />
                                <feGaussianBlur stdDeviation="1" in="shadowSpreadInner1" result="shadowBlurInner1" />
                                <feOffset in="shadowBlurInner1" result="shadowOffsetInner1" />
                                <feComposite in="shadowOffsetInner1" in2="SourceAlpha" operator="arithmetic" k2="-1" k3="1" result="shadowInnerInner1" />
                                <feColorMatrix values="0 0 0 0 1 0 0 0 0 1 0 0 0 0 1 0 0 0 1 0" in="shadowInnerInner1" />
                            </filter>
                        </defs>
                        <g fill="none" fill-rule="evenodd">
                            <use fill="black" filter="url(#b)" xlink:href="#c" />
                            <use fill="url(#d)" xlink:href="#c" />
                            <use fill="black" filter="url(#e)" xlink:href="#c" />
                        </g>
                    </svg>