<svg version="1.1"
      xmlns="http://www.w3.org/2000/svg"
      xmlns:xlink="http://www.w3.org/1999/xlink"  id="snapshot-40189" width="250" height="250" viewBox="0 0 250 250"><desc>This image was made on Patterninja.com</desc><defs>
<!-- image 74658 -->
<g id="transformed-74658" data-image="74658" transform="translate(-90, -90) rotate(45, 90, 90)"><g><svg version="1.1" width="180px" height="180px" viewBox="0 0 180 180"><g id="original-74658"><svg xmlns="http://www.w3.org/2000/svg" viewBox="0 0 24 24" xmlns:xlink="http://www.w3.org/1999/xlink" version="1.1" preserveAspectRatio="xMidYMid meet">
  <path d="M20 2H8c-1.1 0-2 .9-2 2v12c0 1.1.9 2 2 2h12c1.1 0 2-.9 2-2V4c0-1.1-.9-2-2-2zm-2 5h-3v5.5a2.5 2.5 0 0 1-5 0 2.5 2.5 0 0 1 2.5-2.5c.57 0 1.08.19 1.5.51V5h4v2zM4 6H2v14c0 1.1.9 2 2 2h14v-2H4V6z" fill="rgba(255, 255, 255, 0.25)" stroke="none"/>
</svg>
</g></svg></g></g>
<!-- /image 74658 -->
</defs><rect x="0" y="0" width="250" height="250" fill="rgba(0, 170, 255, 0)"></rect><use xlink:href="#transformed-74658" transform="translate(-250, -250)"></use><use xlink:href="#transformed-74658" transform="translate(0, -250)"></use><use xlink:href="#transformed-74658" transform="translate(250, -250)"></use><use xlink:href="#transformed-74658" transform="translate(-250, 0)"></use><use xlink:href="#transformed-74658" transform="translate(0, 0)"></use><use xlink:href="#transformed-74658" transform="translate(250, 0)"></use><use xlink:href="#transformed-74658" transform="translate(-250, 250)"></use><use xlink:href="#transformed-74658" transform="translate(0, 250)"></use><use xlink:href="#transformed-74658" transform="translate(250, 250)"></use></svg>